PathFileType	4	(X/Y/Z)	C:/Users/opensim2020/Desktop/walking_exp_matlab/subject03_walking06_straight_01.trc																																																																																																																																		
DataRate	CameraRate	NumFrames	NumMarkers	Units	OrigDataRate	OrigDataStartFrame	OrigNumFrames																																																																																																																														
100	100	6	44	mm	100	624	362																																																																																																																														
Frame#	Time	LFHD			RFHD			LBHD			RBHD			C7			T10			CLAV			STRN			RBAK			LSHO			LUPA			LELB			LFRM			LWRA			LWRB			LFIN			RSHO			RUPA			RELB			RFRM			RWRA			RWRB			RFIN			LASI			RASI			LPSI			RPSI			LTHI			LKNE			LTIB			LANK			LHEE			LTOE			RTHI			RKNE			RTIB			RANK			RHEE			RTOE			*39			*40			*41			*42			*43		
		X1	Y1	Z1	X2	Y2	Z2	X3	Y3	Z3	X4	Y4	Z4	X5	Y5	Z5	X6	Y6	Z6	X7	Y7	Z7	X8	Y8	Z8	X9	Y9	Z9	X10	Y10	Z10	X11	Y11	Z11	X12	Y12	Z12	X13	Y13	Z13	X14	Y14	Z14	X15	Y15	Z15	X16	Y16	Z16	X17	Y17	Z17	X18	Y18	Z18	X19	Y19	Z19	X20	Y20	Z20	X21	Y21	Z21	X22	Y22	Z22	X23	Y23	Z23	X24	Y24	Z24	X25	Y25	Z25	X26	Y26	Z26	X27	Y27	Z27	X28	Y28	Z28	X29	Y29	Z29	X30	Y30	Z30	X31	Y31	Z31	X32	Y32	Z32	X33	Y33	Z33	X34	Y34	Z34	X35	Y35	Z35	X36	Y36	Z36	X37	Y37	Z37	X38	Y38	Z38	X39	Y39	Z39	X40	Y40	Z40	X41	Y41	Z41	X42	Y42	Z42	X43	Y43	Z43	X44	Y44	Z44
																																																																																																																																					
182	1.81	-106.63842	1621.0675	1369.95508	-115.54118	1627.61121	1503.5199	-225.66519	1556.20386	1369.33167	-229.96527	1563.37952	1500.47314	-243.95659	1411.88965	1425.3429	-287.29758	1101.8678	1424.74463	-123.95649	1332.63538	1433.63147	-84.80543	1165.85156	1425.5033	-307.69016	1236.39746	1510.49731	-156.6794	1372.99438	1276.19983	-137.76434	1185.00085	1195.90283	-98.93948	1070.45422	1178.59192	-13.00409	976.28552	1189.98499	64.64039	893.98126	1232.91968	46.33877	879.74927	1182.70422	110.19425	829.86218	1197.23193	-184.51897	1354.73889	1590.08508	-211.78946	1131.91199	1655.53833	-209.08444	1018.18329	1667.03198	-209.6564	880.74579	1667.1062	-189.88255	782.54523	1631.52563	-223.992	781.26813	1673.97668	-210.03003	708.12292	1662.99524	-131.45264	932.05688	1299.99121	-118.79039	933.24884	1538.92834	-291.06909	954.94336	1361.92236	-282.19962	961.16693	1509.91956	-224.89806	636.8042	1262.98474	-256.57632	459.37314	1292.0426	-387.7934	304.61523	1297.35071	-496.06583	124.50887	1344.03882	-547.20728	113.36668	1381.51538	-375.30917	32.93099	1375.11389	-125.30093	643.29504	1578.00159	-63.20791	473.56848	1538.802	-61.84516	285.6087	1542.84106	-31.22721	72.01326	1495.68616	-71.6702	40.14076	1442.30957	112.15286	38.84978	1482.12793	-200.93033	1669.12976	1415.96436	NaN	NaN	NaN	NaN	NaN	NaN	NaN	NaN	NaN	NaN	NaN	NaN
183	1.82	-97.75159	1623.17493	1371.01477	-106.20713	1629.67517	1504.91809	-216.37711	1557.20691	1371.33569	-220.22279	1564.59985	1502.45923	-233.61035	1413.64392	1427.34424	-277.30087	1103.73438	1425.42639	-113.60828	1334.48132	1435.5022	-74.44768	1167.55688	1427.00049	-297.46146	1238.19897	1512.43713	-146.11613	1375.25659	1278.20764	-129.14151	1186.75305	1198.19409	-91.99184	1071.64246	1180.95215	-7.56598	976.14069	1191.62122	69.47483	892.87708	1233.79517	50.11029	878.61304	1183.84692	113.52823	828.18726	1197.47803	-173.79562	1356.42957	1591.84534	-200.68137	1133.45374	1656.90271	-197.87738	1019.82166	1668.2063	-198.87498	882.44873	1668.39001	-179.65704	783.97931	1632.70068	-213.62671	783.00775	1675.56543	-200.12332	709.50055	1664.38196	-120.70684	933.39905	1301.3468	-108.64607	935.93073	1540.16699	-280.39569	956.2774	1362.28296	-272.06339	963.7525	1510.22729	-211.97385	637.24469	1262.84387	-241.93129	459.31897	1290.17017	-376.70203	307.59067	1296.59399	-490.34802	131.53242	1343.71753	-540.5166	122.41379	1381.91846	-374.48148	33.07402	1375.38684	-116.07679	645.55933	1578.82715	-55.69088	475.38708	1539.61194	-58.18864	286.42059	1543.65967	-31.67455	72.23793	1496.25562	-71.75028	40.20248	1442.56201	112.07051	38.61599	1482.75732	-192.21922	1670.32251	1417.66443	NaN	NaN	NaN	NaN	NaN	NaN	NaN	NaN	NaN	NaN	NaN	NaN
184	1.83	-88.75762	1624.87158	1372.99219	-96.8093	1631.62683	1506.4436	-207.02899	1558.43396	1373.29968	-210.46463	1565.90955	1504.45227	-223.48984	1415.28052	1429.25488	-267.33331	1105.60193	1426.04797	-103.32742	1336.35095	1437.18164	-64.11745	1169.38757	1428.48608	-286.53308	1239.80249	1514.25928	-135.69786	1377.63049	1280.20154	-120.42856	1188.75488	1200.49976	-85.19292	1073.04431	1183.53284	-2.28231	976.16766	1193.31592	73.34332	891.33453	1234.68054	53.44278	877.49677	1184.86511	116.30416	826.28772	1197.73242	-163.21558	1358.25488	1593.46375	-189.6118	1135.25244	1658.38232	-186.62126	1021.60986	1669.40588	-187.81088	884.31726	1669.80469	-168.70753	785.8949	1634.04602	-202.63683	784.88647	1677.1687	-189.77835	710.815	1665.48669	-110.13358	934.68054	1302.90552	-98.57905	938.65906	1541.46582	-269.52579	957.99463	1362.66687	-262.0181	966.36261	1510.55823	-198.65881	637.76471	1262.44165	-225.91998	459.35229	1287.8645	-364.49203	310.71042	1295.46021	-482.79611	138.66006	1343.67639	-532.65094	132.55063	1382.56287	-373.97729	32.98527	1375.56299	-106.95838	647.55975	1580.08386	-49.47549	476.73199	1540.94116	-55.72635	286.81293	1544.71057	-31.68831	72.2919	1496.11377	-71.93112	40.1907	1442.73901	111.89366	38.51737	1483.23645	-183.37602	1672.02283	1419.17969	NaN	NaN	NaN	NaN	NaN	NaN	NaN	NaN	NaN	NaN	NaN	NaN
185	1.84	-79.81306	1626.63013	1374.58008	-87.32556	1633.39966	1507.93579	-197.76466	1559.68005	1375.30261	-200.70459	1567.23865	1506.37903	-213.61188	1416.68115	1431.11877	-257.23206	1107.30249	1426.80225	-93.21196	1338.12732	1438.72986	-53.804	1171.19897	1429.79126	-275.90909	1241.48499	1516.28516	-125.55165	1379.96606	1282.19287	-111.65205	1190.79834	1202.80359	-78.37449	1074.5658	1186.15881	2.59515	976.03693	1194.94958	77.12383	889.69006	1235.45837	56.47364	876.28809	1185.83118	118.49625	823.93335	1197.99109	-152.6106	1360.13062	1595.02246	-178.57352	1137.08362	1659.94507	-175.27567	1023.52216	1670.82141	-176.40482	886.26581	1671.32397	-157.75331	787.65961	1635.58643	-191.00082	786.77325	1678.73608	-178.6044	712.72198	1667.33972	-99.71992	936.1568	1304.53784	-88.66049	941.21094	1542.84839	-258.97141	959.88098	1363.27698	-251.92973	968.83289	1511.08105	-184.89015	638.32617	1261.74133	-208.90294	459.30292	1285.25378	-350.98038	313.93329	1294.23779	-473.78198	146.00546	1343.39734	-522.89478	142.78738	1383.1283	-372.92551	33.06096	1376.00403	-98.4877	649.16766	1581.59143	-44.2356	477.56122	1542.61584	-53.99752	286.9826	1545.54114	-32.07158	72.52055	1496.36621	-72.10586	40.22944	1443.17798	111.68466	38.40253	1483.43982	-174.58414	1673.33459	1421.34631	NaN	NaN	NaN	NaN	NaN	NaN	NaN	NaN	NaN	NaN	NaN	NaN
186	1.85	-70.83189	1628.35229	1375.41113	-77.82532	1634.92493	1509.48828	-188.6096	1561.04578	1377.21924	-191.03076	1568.48889	1508.33594	-203.94135	1418.14563	1432.9668	-247.36607	1109.00037	1427.84473	-83.17036	1339.84265	1440.2478	-43.45823	1172.90198	1431.00671	-265.74902	1243.1604	1518.43018	-115.68355	1382.18604	1284.09375	-102.84741	1192.86646	1205.07654	-71.73117	1076.0238	1188.67798	7.3682	975.81744	1196.35144	80.70048	887.83704	1236.15088	59.29842	874.94958	1186.64856	120.25833	821.14948	1198.27625	-142.17732	1361.91565	1596.50024	-167.6591	1138.86682	1661.55566	-164.0358	1025.41016	1672.3717	-164.77866	888.21252	1673.02673	-145.86012	789.6311	1637.17944	-179.29234	788.73224	1680.71301	-166.98796	714.41003	1668.93604	-89.23072	937.88763	1306.38318	-78.8868	943.38788	1544.33618	-248.36945	961.58868	1364.021	-241.8317	971.14374	1511.797	-170.70921	638.64307	1261.01953	-191.25946	459.10675	1282.72632	-336.27664	317.00729	1292.89014	-463.48636	152.91324	1342.67285	-511.43213	152.93233	1383.23096	-371.49042	33.29393	1376.1665	-91.07509	650.35162	1583.26965	-39.7716	477.92081	1544.32727	-52.09175	287.16409	1546.39075	-31.99725	72.60789	1496.67627	-72.18485	40.31025	1443.24548	111.58392	38.35173	1483.63293	-165.49168	1674.41333	1423.18494	NaN	NaN	NaN	NaN	NaN	NaN	NaN	NaN	NaN	NaN	NaN	NaN
187	1.86	-61.81487	1629.63831	1377.47571	-68.43793	1636.10938	1510.90491	-179.49089	1562.38623	1379.07312	-181.45235	1569.63171	1510.19861	-194.36467	1419.06482	1434.62683	-237.39458	1110.29492	1429.1499	-73.29417	1341.27722	1441.63184	-33.27249	1174.44897	1432.08752	-254.89886	1244.38599	1520.29834	-106.05944	1384.18005	1285.90674	-93.83865	1194.73022	1207.12109	-65.08556	1077.3175	1191.05664	12.12395	975.44983	1197.78467	84.07076	885.71686	1236.71057	61.94163	873.45697	1187.26953	121.65384	817.92871	1198.53406	-131.7879	1363.41357	1597.91626	-156.74712	1140.53174	1663.30371	-152.87219	1027.15442	1674.10864	-152.94144	889.93695	1674.83191	-133.80196	791.37488	1638.9906	-166.86313	790.32294	1682.43555	-154.89867	715.92053	1670.58777	-79.14105	939.30023	1308.18835	-69.23233	945.06989	1545.81372	-238.23543	963.29034	1365.00073	-231.57817	973.07214	1512.75745	-156.27979	638.70203	1260.22852	-172.8448	458.57791	1280.45593	-320.22299	319.70752	1291.71973	-451.27829	159.68018	1341.9812	-498.50983	162.77458	1382.73218	-369.20456	33.88839	1375.29333	-84.8212	650.98529	1584.68347	-35.70556	477.89365	1545.96582	-49.85268	287.32544	1547.25427	-32.16882	72.64073	1496.55225	-72.15082	40.33189	1443.17712	111.60951	38.19033	1483.72485	-156.29451	1675.58179	1425.1377	NaN	NaN	NaN	NaN	NaN	NaN	NaN	NaN	NaN	NaN	NaN	NaN
